<svg width="20" height="20" viewBox="0 0 20 20" fill="none" xmlns="http://www.w3.org/2000/svg">
<path d="M1.66675 5.83333L8.47085 10.5962C9.02182 10.9819 9.29731 11.1747 9.59697 11.2494C9.86166 11.3154 10.1385 11.3154 10.4032 11.2494C10.7029 11.1747 10.9783 10.9819 11.5293 10.5962L18.3334 5.83333M5.66675 16.6667H14.3334C15.7335 16.6667 16.4336 16.6667 16.9684 16.3942C17.4388 16.1545 17.8212 15.772 18.0609 15.3016C18.3334 14.7669 18.3334 14.0668 18.3334 12.6667V7.33333C18.3334 5.9332 18.3334 5.23313 18.0609 4.69835C17.8212 4.22795 17.4388 3.8455 16.9684 3.60581C16.4336 3.33333 15.7335 3.33333 14.3334 3.33333H5.66675C4.26662 3.33333 3.56655 3.33333 3.03177 3.60581C2.56137 3.8455 2.17892 4.22795 1.93923 4.69835C1.66675 5.23313 1.66675 5.9332 1.66675 7.33333V12.6667C1.66675 14.0668 1.66675 14.7669 1.93923 15.3016C2.17892 15.772 2.56137 16.1545 3.03177 16.3942C3.56655 16.6667 4.26662 16.6667 5.66675 16.6667Z" stroke="#667085" stroke-opacity="0.6" stroke-width="1.5" stroke-linecap="round" stroke-linejoin="round"/>
</svg>
